name analog
datacolumns 19
datarows 38
range 0.389 0.40750000000000003
endheader
time	ground_force_vx	ground_force_vy	ground_force_vz	ground_force_px	ground_force_py	ground_force_pz	l_ground_force_vx	l_ground_force_vy	l_ground_force_vz	l_ground_force_px	l_ground_force_py	l_ground_force_pz	ground_torque_x	ground_torque_y	ground_torque_z	l_ground_torque_x	l_ground_torque_y	l_ground_torque_z
0.389	-0.0	-0.0	-0.0	10.122387886047363	74.12093353271484	-412.5379943847656	19.924205780029297	-74.36112976074219	-410.4617309570313	-0.0	-0.0	-0.0	-0.0	-0.0	-0.0	60060.51953125	31475.19140625	-4958.6123046875
0.3895	-0.0	-0.0	-0.0	9.707140922546388	75.6302261352539	-413.3604431152344	18.62926483154297	-75.32070922851562	-412.4876708984375	-0.0	-0.0	-0.0	-0.0	-0.0	-0.0	60075.52734375	32718.525390625	-5359.2509765625
0.39	-0.0	-0.0	-0.0	9.414850234985352	76.8592758178711	-418.3291931152344	17.387313842773438	-76.3099365234375	-415.1887512207031	-0.0	-0.0	-0.0	-0.0	-0.0	-0.0	60075.06640625	34100.828125	-5773.6484375
0.3905	-0.0	-0.0	-0.0	9.022984504699709	78.3329086303711	-419.6281127929688	15.39437484741211	-77.62259674072266	-414.5574645996094	-0.0	-0.0	-0.0	-0.0	-0.0	-0.0	59869.58203125	35712.44921875	-6275.56494140625
0.391	-0.0	-0.0	-0.0	7.939735412597656	79.57823944091797	-421.2919921875	13.572750091552734	-78.82398223876953	-416.3509521484375	-0.0	-0.0	-0.0	-0.0	-0.0	-0.0	59840.4140625	37330.25390625	-6623.35107421875
0.3915	-0.0	-0.0	-0.0	7.041023254394531	80.80661010742188	-423.5673828125	10.870246887207031	-79.9184799194336	-417.0491027832031	-0.0	-0.0	-0.0	-0.0	-0.0	-0.0	59677.40234375	38782.8125	-7202.91259765625
0.392	-0.0	-0.0	-0.0	6.484541893005371	82.07569122314453	-424.9817810058594	8.617856979370117	-81.24952697753906	-416.6997680664063	-0.0	-0.0	-0.0	-0.0	-0.0	-0.0	59359.49609375	40072.84765625	-7758.9814453125
0.3925	-0.0	-0.0	-0.0	6.141763687133789	83.02153015136719	-425.1469421386719	6.502380847930908	-81.92825317382812	-417.9084167480469	-0.0	-0.0	-0.0	-0.0	-0.0	-0.0	59398.07421875	41504.0390625	-8201.24609375
0.393	-0.0	-0.0	-0.0	5.07804012298584	84.49562072753906	-424.7953186035156	3.964380025863648	-83.27400207519531	-416.4587707519531	-0.0	-0.0	-0.0	-0.0	-0.0	-0.0	59090.99609375	43390.54296875	-8684.712890625
0.3935	-0.0	-0.0	-0.0	3.862838506698608	85.60618591308594	-424.7412109375	1.678637146949768	-84.6121826171875	-416.6189575195313	-0.0	-0.0	-0.0	-0.0	-0.0	-0.0	58707.84765625	44874.9140625	-9307.4384765625
0.394	-0.0	-0.0	-0.0	2.5461151599884038	86.8322982788086	-425.0091247558594	-0.709686279296875	-85.2711181640625	-416.24359130859375	-0.0	-0.0	-0.0	-0.0	-0.0	-0.0	58622.28515625	46420.6015625	-10000.6171875
0.3945	-0.0	-0.0	-0.0	1.5282957553863523	88.07984161376953	-424.4644165039063	-3.316082715988159	-86.28327178955078	-415.2742614746094	-0.0	-0.0	-0.0	-0.0	-0.0	-0.0	58377.91796875	48008.390625	-10668.9521484375
0.395	-0.0	-0.0	-0.0	0.3643192648887634	89.7842025756836	-424.68408203125	-5.902874946594238	-87.6151123046875	-415.3868408203125	-0.0	-0.0	-0.0	-0.0	-0.0	-0.0	58223.328125	49623.23828125	-11261.8857421875
0.3955	-0.0	-0.0	-0.0	-0.9964199066162108	90.64561462402344	-423.654296875	-8.072681427001953	-88.15956115722656	-414.63189697265625	-0.0	-0.0	-0.0	-0.0	-0.0	-0.0	58115.4921875	51073.62109375	-11850.4736328125
0.396	-0.0	-0.0	-0.0	-2.1079349517822266	91.98257446289062	-423.3013305664063	-9.735997200012209	-89.78267669677734	-415.1703796386719	-0.0	-0.0	-0.0	-0.0	-0.0	-0.0	58186.3828125	52540.18359375	-12508.3974609375
0.3965	-0.0	-0.0	-0.0	-3.089503765106201	93.33672332763672	-422.2111206054688	-11.502145767211914	-90.74676513671876	-414.6324462890625	-0.0	-0.0	-0.0	-0.0	-0.0	-0.0	58060.50390625	53649.2890625	-12959.6923828125
0.397	-0.0	-0.0	-0.0	-3.657630920410156	94.98818969726562	-421.1201477050781	-13.040485382080078	-92.11952209472656	-416.188720703125	-0.0	-0.0	-0.0	-0.0	-0.0	-0.0	58228.015625	54934.09765625	-13540.8115234375
0.3975	-0.0	-0.0	-0.0	-4.476874351501465	96.12310791015624	-419.8989868164063	-14.04114055633545	-93.96649932861328	-416.4093933105469	-0.0	-0.0	-0.0	-0.0	-0.0	-0.0	58173.78515625	56343.25390625	-14026.9755859375
0.398	-0.0	-0.0	-0.0	-4.866062164306641	97.51683044433594	-419.4173583984375	-14.725990295410156	-95.34719848632812	-416.9181823730469	-0.0	-0.0	-0.0	-0.0	-0.0	-0.0	57968.14453125	57337.1171875	-14373.2861328125
0.3985	-0.0	-0.0	-0.0	-5.482318878173828	98.3760223388672	-418.7438354492188	-15.338977813720703	-97.78005981445312	-417.2047424316406	-0.0	-0.0	-0.0	-0.0	-0.0	-0.0	58079.234375	58530.05078125	-14897.4306640625
0.399	-0.0	-0.0	-0.0	-5.628685474395752	99.53341674804688	-419.9976806640625	-16.250385284423828	-100.51770782470705	-418.7913208007813	-0.0	-0.0	-0.0	-0.0	-0.0	-0.0	57943.5859375	59474.21875	-15281.6787109375
0.3995	-0.0	-0.0	-0.0	-6.416800022125244	100.10193634033205	-418.9386901855469	-16.355710983276367	-102.53328704833984	-417.7437133789063	-0.0	-0.0	-0.0	-0.0	-0.0	-0.0	57916.12890625	60478.046875	-15665.1201171875
0.4	-0.0	-0.0	-0.0	-6.56127405166626	101.6403350830078	-416.1821899414063	-16.645774841308594	-104.61288452148438	-418.7909851074219	-0.0	-0.0	-0.0	-0.0	-0.0	-0.0	57929.6640625	61171.17578125	-16086.654296875
0.4005	-0.0	-0.0	-0.0	-6.722235202789307	101.61742401123048	-416.1357421875	-17.224485397338867	-105.97755432128906	-420.0294189453125	-0.0	-0.0	-0.0	-0.0	-0.0	-0.0	57699.25	61826.453125	-16364.9560546875
0.401	-0.0	-0.0	-0.0	-7.3241095542907715	102.59314727783205	-415.4286193847656	-17.355825424194336	-106.92620849609376	-419.2409362792969	-0.0	-0.0	-0.0	-0.0	-0.0	-0.0	57601.89453125	62511.35546875	-16796.818359375
0.4015	-0.0	-0.0	-0.0	-7.386439323425293	103.57853698730467	-415.4269714355469	-18.36313247680664	-107.399169921875	-418.09185791015625	-0.0	-0.0	-0.0	-0.0	-0.0	-0.0	56973.50390625	63164.6328125	-17094.23828125
0.402	-0.0	-0.0	-0.0	-7.555525779724121	104.89736938476562	-413.2205200195313	-18.975255966186523	-107.81434631347656	-415.6475830078125	-0.0	-0.0	-0.0	-0.0	-0.0	-0.0	57120.20703125	63647.87109375	-17539.703125
0.4025	-0.0	-0.0	-0.0	-7.047630310058594	105.84695434570312	-413.7685241699219	-20.48325729370117	-107.91606903076172	-417.2010192871094	-0.0	-0.0	-0.0	-0.0	-0.0	-0.0	56684.734375	64300.7421875	-18131.06640625
0.403	-0.0	-0.0	-0.0	-7.23542594909668	106.84861755371094	-413.8430786132813	-21.54422187805176	-107.8407745361328	-414.984619140625	-0.0	-0.0	-0.0	-0.0	-0.0	-0.0	56526.953125	64823.234375	-18539.763671875
0.4035	-0.0	-0.0	-0.0	-7.265930652618408	107.63912963867188	-412.7925415039063	-22.049219131469727	-108.60216522216795	-413.5520324707031	-0.0	-0.0	-0.0	-0.0	-0.0	-0.0	56178.734375	65053.7109375	-18827.76171875
0.404	-0.0	-0.0	-0.0	-7.205338954925537	108.68020629882812	-413.6871948242188	-22.560386657714844	-110.2069854736328	-412.5043640136719	-0.0	-0.0	-0.0	-0.0	-0.0	-0.0	55827.296875	65309.921875	-19289.79296875
0.4045	-0.0	-0.0	-0.0	-6.819741249084473	109.70008850097656	-413.1820373535156	-22.19842529296875	-112.6796646118164	-413.9378356933594	-0.0	-0.0	-0.0	-0.0	-0.0	-0.0	55891.86328125	65478.66796875	-19543.7734375
0.405	-0.0	-0.0	-0.0	-5.897696495056152	110.39290618896484	-414.0044860839844	-21.12269401550293	-114.6225814819336	-412.5788879394531	-0.0	-0.0	-0.0	-0.0	-0.0	-0.0	55404.06640625	65634.3828125	-19503.748046875
0.4055	-0.0	-0.0	-0.0	-5.570937633514404	111.96745300292967	-415.69281005859375	-19.901029586791992	-116.23133850097656	-411.45611572265625	-0.0	-0.0	-0.0	-0.0	-0.0	-0.0	55235.12109375	65747.1640625	-19427.505859375
0.406	-0.0	-0.0	-0.0	-4.331747531890869	113.19487762451172	-416.125732421875	-19.02356338500977	-118.18417358398438	-409.7487182617188	-0.0	-0.0	-0.0	-0.0	-0.0	-0.0	55239.14453125	65749.828125	-19410.890625
0.40650000000000003	-0.0	-0.0	-0.0	-3.6768550872802734	113.94815063476562	-416.712158203125	-18.35325813293457	-119.53849029541016	-409.3997192382813	-0.0	-0.0	-0.0	-0.0	-0.0	-0.0	54895.609375	65773.921875	-19565.65625
0.40700000000000003	-0.0	-0.0	-0.0	-2.448128461837769	115.1752700805664	-417.376953125	-18.38321685791016	-119.96001434326172	-409.1661987304688	-0.0	-0.0	-0.0	-0.0	-0.0	-0.0	54654.68359375	65604.0625	-19615.09765625
0.40750000000000003	-0.0	-0.0	-0.0	-1.6370607614517212	116.24687957763672	-420.3254089355469	-17.94871711730957	-120.79376220703124	-407.2654113769531	-0.0	-0.0	-0.0	-0.0	-0.0	-0.0	54486.28125	65536.984375	-19684.43359375
